<svg width="128" height="47" viewBox="0 0 128 47" fill="none" xmlns="http://www.w3.org/2000/svg">
<path d="M57.4102 14.2095H51.2149V15.5089C51.2193 15.8102 51.2925 16.1066 51.429 16.3752C51.5077 16.6427 51.6806 16.8726 51.9157 17.0225C52.1275 17.2231 52.3708 17.3875 52.636 17.5091C52.9658 17.5919 53.3035 17.6392 53.6434 17.6503V19.2368C53.2746 19.4023 52.8874 19.5232 52.49 19.5969C52.0633 19.6816 51.6303 19.7304 51.1954 19.7429C50.5789 19.7275 49.9698 19.6057 49.3948 19.3828C48.8669 19.139 48.3755 18.8229 47.9348 18.4435C47.4937 18.0223 47.1282 17.5285 46.8544 16.9835C46.6235 16.4109 46.5014 15.8003 46.4942 15.1829C46.4651 14.5607 46.5887 13.9408 46.8544 13.3773C47.0768 12.8215 47.4211 12.3226 47.8618 11.9173C48.751 11.0997 49.8967 10.6163 51.103 10.5498C51.5472 10.5748 51.9844 10.6717 52.3975 10.8369C52.8376 10.9529 53.253 11.1475 53.6239 11.4112C54.0235 11.6945 54.5016 11.846 54.9914 11.8443C55.3303 11.8448 55.6654 11.7744 55.9755 11.6378C56.2856 11.5012 56.5637 11.3014 56.7921 11.0511L57.7314 10.1167C57.2447 9.63 56.7191 9.1774 56.2178 8.74427C55.7312 8.38414 55.1374 8.024 54.6313 7.73687C54.0812 7.45775 53.5017 7.24066 52.9036 7.0896C52.3135 6.9492 51.7095 6.87573 51.103 6.87061C50.3507 6.89202 49.6024 6.9882 48.8692 7.15774C48.1852 7.36008 47.5307 7.65132 46.9225 8.024C46.2987 8.39718 45.7303 8.85586 45.2338 9.38667C44.7253 9.87343 44.2893 10.4307 43.9392 11.0413C43.5604 11.6375 43.2917 12.2969 43.146 12.988C42.9411 13.7161 42.8444 14.4704 42.8588 15.2267C42.8488 15.9571 42.9455 16.685 43.146 17.3875C43.2917 18.0786 43.5604 18.738 43.9392 19.3341C44.288 19.9691 44.7238 20.5522 45.2338 21.0667C45.7508 21.5522 46.3341 21.9619 46.9663 22.2833C47.5734 22.658 48.2282 22.9494 48.913 23.1496C49.6389 23.3571 50.392 23.4539 51.1468 23.4367C51.6992 23.4481 52.2518 23.4253 52.8014 23.3686C53.3631 23.2896 53.9179 23.1676 54.461 23.0036C54.9944 22.863 55.5044 22.6449 55.9745 22.3563C56.5068 22.0623 56.9977 21.699 57.4345 21.2759L57.4102 14.2095Z" fill="black"/>
<path d="M91.7688 23.2956L84.7072 7.07495H81.5196L74.4629 23.2956H76.8378C77.0568 23.2956 77.3245 23.2226 77.5581 23.2226C77.7881 23.13 78.0055 23.0091 78.2054 22.8624C78.4244 22.7164 78.5655 22.5753 78.7845 22.4293C78.9441 22.2639 79.0669 22.0665 79.1446 21.8502L79.9379 20.0495H86.3862L87.1795 21.8502C87.2554 22.0674 87.3784 22.2651 87.5396 22.4293C87.6983 22.6266 87.8932 22.7918 88.1139 22.916C88.3005 23.0242 88.4939 23.1201 88.693 23.2031C88.9286 23.2602 89.171 23.2848 89.4133 23.2761L91.7688 23.2956ZM81.3979 16.7353L82.8579 13.3286C82.926 13.1875 82.926 13.0415 82.999 12.9004C83.0514 12.7877 83.0764 12.6643 83.072 12.5402C83.1244 12.4276 83.1494 12.3042 83.145 12.1801C83.1771 12.2984 83.2015 12.4187 83.218 12.5402C83.248 12.6588 83.2708 12.779 83.2862 12.9004C83.3592 12.9685 83.3592 13.1145 83.4322 13.3286L84.8922 16.7353H81.3979Z" fill="black"/>
<path d="M108.481 7.07495H104.807V17.295C104.802 17.2401 104.776 17.1894 104.734 17.1538C104.705 17.0351 104.682 16.9148 104.666 16.7937C104.593 16.7207 104.593 16.5747 104.52 16.4287L104.305 16.0004L98.6115 7.72708C98.4588 7.50552 98.2273 7.35059 97.9642 7.29395C97.6744 7.14862 97.3539 7.07517 97.0298 7.07982H93.3555V23.2956H97.0931V12.1022L104.797 23.2956H108.471L108.481 7.07495Z" fill="black"/>
<path d="M121.305 23.0133C121.986 22.8403 122.641 22.5751 123.251 22.2249C123.851 21.8546 124.407 21.4188 124.911 20.9255C125.421 20.4383 125.857 19.8792 126.205 19.266C126.544 18.6754 126.81 18.0464 126.999 17.3923C127.195 16.6878 127.286 15.9578 127.266 15.2266C127.284 14.4942 127.187 13.7636 126.979 13.061C126.803 12.3794 126.536 11.7247 126.186 11.1143C125.819 10.5154 125.384 9.96022 124.891 9.45964C124.369 9.01035 123.815 8.60043 123.232 8.23324C122.625 7.85729 121.97 7.56585 121.285 7.36697C120.576 7.19975 119.852 7.10357 119.124 7.07983H112.442V23.2956H119.144C119.874 23.3095 120.602 23.2143 121.305 23.0133ZM116.117 10.8466H119.144C119.717 10.82 120.288 10.9442 120.798 11.2068C121.359 11.3861 121.863 11.71 122.258 12.146C122.674 12.5376 123.015 13.0009 123.266 13.5136C123.497 14.0623 123.619 14.6507 123.626 15.2461C123.619 15.8164 123.497 16.3793 123.266 16.9008C123.017 17.4422 122.676 17.9363 122.258 18.3608C121.844 18.7727 121.346 19.0912 120.798 19.2952C120.277 19.5261 119.714 19.6486 119.144 19.6553H116.117V10.8466Z" fill="black"/>
<path d="M52.222 33.024H51.9349C52.1559 33.0049 52.3613 32.9022 52.5091 32.7369C52.7281 32.5228 52.8693 32.3038 53.0883 32.0896C53.2294 31.8025 53.3024 31.5105 53.4484 31.1504C53.5051 30.8653 53.5279 30.5745 53.5165 30.2841C53.5416 29.7656 53.4432 29.2485 53.2294 28.7754C53.0707 28.3072 52.7981 27.8858 52.4361 27.549C52.0783 27.1963 51.6658 26.9038 51.2146 26.6828C50.7357 26.4823 50.2201 26.3845 49.7011 26.3956H44.2261V40.1634H50.2072C50.7487 40.1788 51.2874 40.081 51.7889 39.8763C52.2406 39.6536 52.6544 39.3613 53.0153 39.01C53.3666 38.6503 53.6575 38.2362 53.8767 37.7836C54.0854 37.2815 54.1849 36.7407 54.1687 36.1971C54.1947 35.6454 54.0702 35.097 53.8085 34.6106C53.474 33.9177 52.9148 33.3586 52.222 33.024ZM46.1727 28.2693H49.7011C49.9561 28.2745 50.2049 28.3485 50.4213 28.4834C50.6508 28.577 50.8681 28.6979 51.0686 28.8436L51.5017 29.4957C51.5921 29.749 51.6414 30.0152 51.6477 30.2841C51.6417 30.5325 51.5923 30.7779 51.5017 31.0092C51.3912 31.2458 51.2452 31.4641 51.0686 31.6565C50.8693 31.824 50.6522 31.9692 50.4213 32.0896C50.1896 32.1731 49.947 32.2223 49.7011 32.2356H46.1727V28.2693ZM52.149 36.9904C52.0228 37.2409 51.878 37.4817 51.7159 37.7106C51.5017 37.8566 51.2876 38.0026 51.0686 38.1438C50.7886 38.2277 50.4993 38.2768 50.2072 38.2898H46.1727V34.1774H50.2072C50.502 34.1544 50.7979 34.2046 51.0686 34.3234C51.315 34.4157 51.5366 34.564 51.7159 34.7566L52.149 35.4038C52.2323 35.6607 52.2814 35.9274 52.295 36.1971C52.2886 36.4676 52.2393 36.7353 52.149 36.9904Z" fill="black"/>
<path d="M57.123 40.1636H65.6933V38.2899H59.0649V34.1776H64.3939V32.3039H59.0649V28.2694H65.6933V26.3958H57.123V40.1636Z" fill="black"/>
<path d="M70.4479 26.3958H68.5742V40.1636H76.4241V38.2899H70.4479V26.3958Z" fill="black"/>
<path d="M78.731 40.1636H80.6046V34.4696H86.2208V32.5229H80.6046V28.2694H87.233V26.3958H78.731V40.1636Z" fill="black"/>
<path d="M102.213 29.71C101.92 29.1769 101.557 28.6858 101.132 28.25C100.678 27.8487 100.189 27.4872 99.6725 27.1696C99.1411 26.8842 98.5878 26.6417 98.0178 26.4444C97.4031 26.3036 96.7747 26.2318 96.1441 26.2303C95.5133 26.2279 94.8844 26.2997 94.2705 26.4444C93.6723 26.6292 93.0937 26.8721 92.5428 27.1696C92.0261 27.4872 91.5376 27.8487 91.0828 28.25C90.6586 28.6858 90.2952 29.1769 90.0024 29.71C89.6839 30.2489 89.4493 30.833 89.3065 31.4425C89.1572 32.0557 89.0836 32.685 89.0875 33.3162C89.0681 34.2526 89.2335 35.1836 89.5741 36.0561C89.9267 36.893 90.4411 37.6521 91.0877 38.2899C91.7367 38.9228 92.4931 39.4352 93.3215 39.8034C94.2098 40.1801 95.1646 40.3754 96.1295 40.3777C96.763 40.3536 97.3916 40.2573 98.0032 40.0906C98.584 39.9242 99.1403 39.682 99.6579 39.3703C100.191 39.0775 100.682 38.7141 101.118 38.2899C101.541 37.8531 101.904 37.3621 102.198 36.8299C102.517 36.3161 102.765 35.761 102.933 35.1801C103.078 34.566 103.151 33.9373 103.152 33.3064C103.156 32.6753 103.082 32.046 102.933 31.4328C102.784 30.8246 102.541 30.2434 102.213 29.71ZM100.845 35.2628C100.616 35.8895 100.246 36.4554 99.7649 36.9175C99.3215 37.4221 98.7497 37.7971 98.1103 38.0028C97.501 38.2878 96.8362 38.434 96.1636 38.431C95.4682 38.4424 94.7794 38.296 94.1488 38.0028C93.5074 37.7983 92.9337 37.4232 92.4892 36.9175C92.0095 36.454 91.6402 35.8885 91.4089 35.2628C91.1145 34.6566 90.9662 33.99 90.9757 33.3162C90.9659 32.6189 91.114 31.9284 91.4089 31.2965C91.6581 30.6786 92.025 30.1149 92.4892 29.637C92.9789 29.1758 93.5499 28.8095 94.1731 28.5566C94.8033 28.2616 95.4922 28.1135 96.1879 28.1234C96.8609 28.1221 97.5257 28.27 98.1346 28.5566C98.7471 28.8133 99.3078 29.1794 99.7892 29.637C100.245 30.1129 100.604 30.6734 100.845 31.2868C101.14 31.9187 101.288 32.6091 101.278 33.3064C101.29 33.9835 101.141 34.6537 100.845 35.2628Z" fill="black"/>
<path d="M113.45 33.6763C113.806 33.4638 114.104 33.1661 114.316 32.81C114.578 32.4918 114.773 32.1244 114.89 31.7296C115.034 31.3114 115.108 30.8724 115.109 30.4302C115.124 29.8872 115.027 29.347 114.822 28.8437C114.617 28.3616 114.323 27.9224 113.956 27.5492C113.585 27.1805 113.148 26.8865 112.666 26.6829C112.164 26.4763 111.623 26.3784 111.08 26.3958H106.106V40.1636H108.053V34.4696H110.072L113.747 39.2973C113.883 39.5799 114.111 39.808 114.394 39.9446C114.708 40.0939 115.053 40.1689 115.401 40.1636H116.696L112.316 34.2506C112.726 34.1312 113.111 33.9365 113.45 33.6763ZM111.075 32.5229H108.048V28.2694H111.075C111.376 28.2738 111.672 28.3471 111.941 28.4836C112.186 28.5783 112.407 28.7262 112.588 28.9167C112.779 29.0965 112.926 29.318 113.017 29.564C113.156 29.8318 113.231 30.1284 113.236 30.4302C113.242 30.7104 113.166 30.9863 113.017 31.2235C112.947 31.5003 112.798 31.7507 112.588 31.9438C112.389 32.1118 112.172 32.2571 111.941 32.3769C111.669 32.4954 111.371 32.5455 111.075 32.5229Z" fill="black"/>
<path d="M116.764 28.2694H121.086V40.1636H122.959V28.2694H127.281V26.3958H116.764V28.2694Z" fill="black"/>
<path d="M69.2945 22.4293C69.4225 22.6225 69.588 22.788 69.7812 22.916C69.9953 22.9841 70.2095 23.1301 70.4285 23.2031C70.6635 23.2637 70.9063 23.2883 71.1487 23.2761H73.5237L70.5696 17.4361C70.9709 17.1184 71.3559 16.7805 71.723 16.4238C72.0197 16.0429 72.2912 15.643 72.5357 15.2266C72.7531 14.8474 72.8999 14.4319 72.9689 14.0002C73.0519 13.5718 73.0991 13.1371 73.11 12.7008C73.0992 12.2661 73.052 11.8331 72.9689 11.4063C72.8384 10.9619 72.6757 10.5276 72.4822 10.1069C72.2621 9.69377 71.996 9.30684 71.6889 8.9535C71.3563 8.58355 70.969 8.26678 70.5404 8.01424C70.1275 7.71443 69.662 7.49486 69.168 7.36697C68.6325 7.19466 68.0756 7.09802 67.5133 7.07983H61.0796V23.2956H64.8221V18.39H66.9829L68.9295 21.8502C69.0069 22.0678 69.1315 22.2656 69.2945 22.4293ZM64.8269 10.8466H67.635C67.8588 10.8602 68.0789 10.9095 68.2871 10.9926C68.4925 11.1175 68.6849 11.2626 68.8614 11.4258C69.0088 11.6251 69.1299 11.8427 69.2215 12.073C69.3585 12.2616 69.4349 12.4873 69.4405 12.7203C69.4465 12.9776 69.3698 13.2301 69.2215 13.4406C69.1298 13.6724 69.0088 13.8916 68.8614 14.0927C68.6824 14.2529 68.4903 14.3978 68.2871 14.5258C68.078 14.6052 67.8582 14.6528 67.635 14.667H64.8269V10.8466Z" fill="black"/>
<path d="M12.6029 46.0619H23.6356C25.3804 46.0125 27.0972 45.6102 28.6823 44.8793C30.209 44.2108 31.5996 43.2671 32.7849 42.0956C33.9906 40.9387 34.9391 39.5408 35.5687 37.993C35.8592 37.37 36.0811 36.7173 36.2305 36.0463V35.9538C36.2743 35.9052 36.2743 35.8565 36.2743 35.764C36.4604 34.9909 36.5567 34.1989 36.5615 33.4037C36.6016 33.2448 36.6164 33.0806 36.6053 32.917V32.7759C36.5515 30.9531 36.1189 29.1615 35.3351 27.515C34.7599 26.0176 33.7791 24.71 32.5027 23.7385C31.5608 23.0453 30.4563 22.6062 29.2955 22.4634H29.2517C29.9907 22.4224 30.6864 22.1024 31.1984 21.568C31.8597 20.9332 32.4179 20.1993 32.8531 19.3926C33.3708 18.49 33.7668 17.5228 34.0308 16.5164C34.3065 15.5489 34.4506 14.5488 34.4591 13.5428C34.4742 11.8425 34.1431 10.1568 33.4857 8.58856C32.2146 5.55121 29.7931 3.14027 26.7503 1.8823C25.1802 1.23404 23.4944 0.912787 21.796 0.938162H12.6029C12.2836 0.932947 11.9752 1.05448 11.7454 1.27613C11.5155 1.49779 11.3829 1.8015 11.3765 2.12076V5.8973C11.3827 6.22061 11.5139 6.52894 11.7426 6.7576C11.9712 6.98626 12.2796 7.11747 12.6029 7.1237H21.796C22.6541 7.11592 23.5049 7.28145 24.2975 7.61036C25.0674 7.95306 25.7695 8.43107 26.3707 9.0217C27.5678 10.2293 28.2454 11.8571 28.2589 13.5574C28.255 14.4178 28.0779 15.2685 27.7382 16.0589C27.4141 16.8154 26.9501 17.5039 26.3707 18.0883C25.7806 18.6813 25.0749 19.1468 24.2975 19.4558C23.5144 19.8183 22.6587 19.9964 21.796 19.9766H15.0557C14.8943 19.9753 14.7342 20.0061 14.5848 20.0673C14.4354 20.1285 14.2997 20.2187 14.1856 20.3329C14.0714 20.447 13.9812 20.5827 13.92 20.7321C13.8588 20.8815 13.828 21.0416 13.8293 21.203V24.96C13.828 25.1215 13.8588 25.2815 13.92 25.4309C13.9812 25.5803 14.0714 25.716 14.1856 25.8301C14.2997 25.9443 14.4354 26.0345 14.5848 26.0957C14.7342 26.1569 14.8943 26.1877 15.0557 26.1864H23.6356C24.5416 26.1899 25.4386 26.3667 26.2782 26.7072C27.8778 27.4238 29.1543 28.7089 29.8601 30.3134C30.2005 31.153 30.3773 32.05 30.3808 32.956C30.3769 33.8462 30.2 34.7272 29.8601 35.5499C29.5152 36.3593 29.0197 37.0959 28.4001 37.7204C27.783 38.3267 27.065 38.8208 26.2782 39.1804C25.4386 39.5209 24.5416 39.6977 23.6356 39.7012H12.6029C12.2792 39.7062 11.9701 39.837 11.7412 40.0659C11.5123 40.2948 11.3815 40.6039 11.3765 40.9276V44.8209C11.3777 45.1471 11.5068 45.4599 11.7362 45.6919C11.9655 45.924 12.2767 46.0568 12.6029 46.0619Z" fill="black"/>
<path d="M8.03314 23.0133C8.66508 22.7595 9.21263 22.3326 9.61292 21.7817C10.0132 21.2308 10.25 20.5781 10.2961 19.8987V2.44681C10.2936 2.2453 10.2512 2.04627 10.1715 1.8612C10.0917 1.67612 9.97614 1.50865 9.8314 1.36843C9.68665 1.2282 9.51559 1.118 9.32808 1.04415C9.14057 0.970304 8.9403 0.934277 8.73881 0.938143H6.32981C6.07765 0.932984 5.82698 0.977874 5.59228 1.07022C5.35759 1.16256 5.14354 1.30052 4.9625 1.47612C4.78147 1.65172 4.63706 1.86148 4.53761 2.09325C4.43816 2.32502 4.38566 2.57422 4.38314 2.82641V19.2514C4.34833 19.6721 4.25157 20.0854 4.09601 20.4778C3.53147 21.9913 2.11527 22.6045 0.888873 23.0279C0.74774 23.0279 0.703941 23.1691 0.703941 23.2664C0.69572 23.3278 0.709885 23.3902 0.743843 23.442C0.777801 23.4938 0.829283 23.5317 0.888873 23.5487C2.07147 23.9234 3.39034 24.4928 4.00354 25.9528C4.31849 26.6149 4.4496 27.3494 4.38314 28.0795V44.1395C4.38314 44.6558 4.58823 45.151 4.95331 45.516C5.31838 45.8811 5.81352 46.0862 6.32981 46.0862H8.73394C8.94165 46.083 9.14671 46.039 9.3374 45.9566C9.52808 45.8741 9.70066 45.7549 9.84528 45.6058C9.98989 45.4567 10.1037 45.2805 10.1802 45.0874C10.2568 44.8942 10.2945 44.6879 10.2913 44.4802V26.6147C10.231 25.94 9.98932 25.2943 9.59176 24.7459C9.19419 24.1976 8.65561 23.767 8.03314 23.5H7.98447C7.7404 23.4001 7.48797 23.3219 7.23014 23.2664C7.48634 23.2238 7.73863 23.1604 7.98447 23.0766C7.98211 23.0691 7.98159 23.0612 7.98296 23.0535C7.98432 23.0458 7.98753 23.0385 7.99231 23.0323C7.99708 23.0261 8.00329 23.0211 8.0104 23.0178C8.01751 23.0145 8.02531 23.013 8.03314 23.0133Z" fill="black"/>
</svg>
